<svg xmlns="http://www.w3.org/2000/svg" xmlns:xlink="http://www.w3.org/1999/xlink" width="500" zoomAndPan="magnify" viewBox="0 0 375 374.999991" height="500" preserveAspectRatio="xMidYMid meet" version="1.0"><defs><clipPath id="55eac03267"><path d="M 107.574219 53 L 271.074219 53 L 271.074219 287 L 107.574219 287 Z M 107.574219 53 " clip-rule="nonzero"/></clipPath><clipPath id="3eba2de24c"><path d="M 150 300 L 237 300 L 237 348.917969 L 150 348.917969 Z M 150 300 " clip-rule="nonzero"/></clipPath></defs><g clip-path="url(#55eac03267)"><path fill="#7ac242" d="M 159.792969 192.925781 C 159.605469 181.199219 151.5625 174.367188 144.375 166.902344 L 159.570312 180.46875 C 161.1875 173.722656 167.265625 135.492188 167.152344 130.421875 C 168.5625 158.210938 161.152344 181.125 165.472656 210.253906 C 175.375 200.453125 180.867188 187.769531 192.5 178.34375 C 186.410156 184.21875 170.542969 206.75 168.300781 211.644531 C 162.558594 224.164062 170.777344 246.449219 177.378906 258.832031 L 186.210938 243.765625 C 196.046875 225.953125 208.566406 207.160156 224.332031 193.050781 C 199.359375 227.195312 198.175781 227.867188 179.996094 263.476562 C 194.542969 289.847656 214.777344 295.140625 243.609375 266.347656 C 252.601562 257.367188 260.886719 243.019531 265.082031 234.226562 C 297.648438 165.960938 187.242188 144.820312 180.640625 53.175781 C 142.507812 91.792969 35.113281 270.410156 184.691406 286.34375 C 168.410156 265.15625 174.089844 254.0625 151.289062 228.363281 C 147.015625 223.554688 142.46875 219.558594 138.109375 213.148438 L 161.375 232.722656 C 162.097656 222.140625 159.992188 204.886719 159.804688 192.925781 Z M 159.792969 192.925781 " fill-opacity="1" fill-rule="evenodd"/></g><g clip-path="url(#3eba2de24c)"><path fill="#d9d9d9" d="M 156.554688 300.457031 L 230.609375 300.628906 L 230.707031 300.628906 C 232.390625 300.65625 233.910156 301.363281 235.003906 302.46875 C 236.101562 303.585938 236.773438 305.101562 236.761719 306.777344 L 236.761719 306.878906 C 236.734375 308.589844 236 310.144531 234.855469 311.261719 C 233.710938 312.378906 232.140625 313.074219 230.433594 313.074219 L 156.382812 312.902344 L 156.28125 312.902344 C 154.601562 312.875 153.082031 312.167969 151.984375 311.0625 C 150.890625 309.945312 150.214844 308.429688 150.230469 306.753906 L 150.230469 306.652344 C 150.253906 304.941406 150.988281 303.386719 152.132812 302.269531 C 153.28125 301.152344 154.847656 300.457031 156.554688 300.457031 Z M 167.875 335.84375 L 219.273438 335.96875 L 219.375 335.96875 C 221.054688 335.992188 222.574219 336.699219 223.671875 337.804688 C 224.769531 338.925781 225.441406 340.4375 225.425781 342.117188 L 225.425781 342.214844 C 225.402344 343.929688 224.667969 345.484375 223.523438 346.601562 C 222.375 347.71875 220.808594 348.414062 219.101562 348.414062 L 167.703125 348.289062 L 167.601562 348.289062 C 165.921875 348.265625 164.402344 347.558594 163.304688 346.453125 C 162.210938 345.332031 161.539062 343.816406 161.550781 342.140625 L 161.550781 342.042969 C 161.574219 340.328125 162.308594 338.773438 163.457031 337.65625 C 164.601562 336.539062 166.171875 335.84375 167.875 335.84375 Z M 162.320312 319.148438 L 224.828125 319.296875 L 224.929688 319.296875 C 226.609375 319.324219 228.128906 320.03125 229.226562 321.136719 C 230.320312 322.253906 230.996094 323.769531 230.980469 325.445312 L 230.980469 325.546875 C 230.957031 327.261719 230.222656 328.8125 229.078125 329.929688 C 227.929688 331.050781 226.363281 331.746094 224.65625 331.746094 L 162.148438 331.59375 L 162.046875 331.59375 C 160.367188 331.570312 158.847656 330.863281 157.75 329.757812 C 156.65625 328.640625 155.984375 327.125 155.996094 325.445312 L 155.996094 325.347656 C 156.019531 323.632812 156.753906 322.082031 157.902344 320.964844 C 159.046875 319.84375 160.617188 319.148438 162.320312 319.148438 Z M 162.320312 319.148438 " fill-opacity="1" fill-rule="evenodd"/></g></svg>